# xmcd
#
# Track frame offsets: 
#        187
#        24392
#        44810
#        66065
#        86447
#        112622
#        142097
#        166662
#        183405
#        207175
#
# Disc length: 3014 seconds
#
# Revision: 3
# Processed by: cddbd v1.5.2PL0 Copyright (c) Steve Scherf et al.
# Submitted via: ExactAudioCopy v0.99pb5
#
DISCID=7f0bc40a
DTITLE=Tuan Vu - Tuyet Pham De Doi [CD3)
DYEAR=1992
DGENRE=Folk
TTITLE0=Duong Xua Loi Cu
TTITLE1=No
TTITLE2=Doan Tai But
TTITLE3=Vet Thuong Cuoi Cung
TTITLE4=Cho Vua Long Em
TTITLE5=Gia Tu Vu Khi
TTITLE6=Nguoi Em Xom Dao
TTITLE7=Ngay Do Xa Roi
TTITLE8=Tra Lai Em Yeu
TTITLE9=Lanh Tron Dem Mua
EXTD=
EXTT0=
EXTT1=
EXTT2=
EXTT3=
EXTT4=
EXTT5=
EXTT6=
EXTT7=
EXTT8=
EXTT9=
PLAYORDER=
